<svg xmlns="http://www.w3.org/2000/svg" xmlns:xlink="http://www.w3.org/1999/xlink" width="40" zoomAndPan="magnify" viewBox="0 0 30 30.000001" height="40" preserveAspectRatio="xMidYMid meet" version="1.0"><defs><clipPath id="5b5ba68231"><path d="M 0.484375 0 L 29.515625 0 L 29.515625 29.03125 L 0.484375 29.03125 Z M 0.484375 0 " clip-rule="nonzero"/></clipPath><clipPath id="2d458eaab2"><path d="M 0.484375 0 L 29.515625 0 L 29.515625 26.128906 L 0.484375 26.128906 Z M 0.484375 0 " clip-rule="nonzero"/></clipPath><clipPath id="00ebf2f3ed"><path d="M 4 14 L 26 14 L 26 26.128906 L 4 26.128906 Z M 4 14 " clip-rule="nonzero"/></clipPath></defs><g clip-path="url(#5b5ba68231)"><path fill="#ffffff" d="M 0.484375 0 L 29.515625 0 L 29.515625 36.289062 L 0.484375 36.289062 Z M 0.484375 0 " fill-opacity="1" fill-rule="nonzero"/><path fill="#ffffff" d="M 0.484375 0 L 29.515625 0 L 29.515625 29.03125 L 0.484375 29.03125 Z M 0.484375 0 " fill-opacity="1" fill-rule="nonzero"/><path fill="#000001" d="M 0.484375 0 L 29.515625 0 L 29.515625 29.03125 L 0.484375 29.03125 Z M 0.484375 0 " fill-opacity="1" fill-rule="nonzero"/></g><g clip-path="url(#2d458eaab2)"><path fill="#000001" d="M 29.515625 11.613281 C 29.515625 15.328125 28.125 18.714844 25.828125 21.28125 C 23.171875 24.257812 19.304688 26.128906 15 26.128906 C 10.695312 26.128906 6.828125 24.257812 4.171875 21.28125 C 1.878906 18.714844 0.484375 15.328125 0.484375 11.613281 C 0.484375 3.597656 6.984375 -2.902344 15 -2.902344 C 23.019531 -2.902344 29.515625 3.597656 29.515625 11.613281 " fill-opacity="1" fill-rule="nonzero"/></g><path fill="#f2f2f2" d="M 15 14.289062 C 17.632812 14.289062 20.027344 11.3125 20.027344 8.042969 C 20.027344 4.953125 19.429688 1.902344 15 1.902344 C 10.570312 1.902344 9.972656 4.953125 9.972656 8.042969 C 9.972656 11.3125 12.371094 14.289062 15 14.289062 " fill-opacity="1" fill-rule="nonzero"/><g clip-path="url(#00ebf2f3ed)"><path fill="#f2f2f2" d="M 25.828125 21.28125 C 23.171875 24.257812 19.304688 26.128906 15 26.128906 C 10.695312 26.128906 6.828125 24.257812 4.171875 21.28125 C 4.125 19.488281 5.320312 15.335938 11.410156 14.054688 C 12.453125 15.121094 13.734375 15.71875 15 15.71875 C 16.265625 15.71875 17.546875 15.121094 18.589844 14.054688 C 24.679688 15.335938 25.875 19.488281 25.828125 21.28125 " fill-opacity="1" fill-rule="nonzero"/></g></svg>