<svg xmlns="http://www.w3.org/2000/svg" xmlns:xlink="http://www.w3.org/1999/xlink" width="500" zoomAndPan="magnify" viewBox="0 0 375 374.999991" height="500" preserveAspectRatio="xMidYMid meet" version="1.0"><defs><clipPath id="e40609363c"><path d="M 17.445312 37.5 L 357.195312 37.5 L 357.195312 328.5 L 17.445312 328.5 Z M 17.445312 37.5 " clip-rule="nonzero"/></clipPath></defs><g clip-path="url(#e40609363c)"><path fill="#5271ff" d="M 35.804688 37.5 C 25.792969 37.5 17.625 45.671875 17.625 55.6875 L 17.625 310.3125 C 17.625 320.328125 25.792969 328.5 35.804688 328.5 L 338.835938 328.5 C 348.851562 328.5 357.019531 320.328125 357.019531 310.3125 L 357.019531 55.6875 C 357.019531 45.671875 348.851562 37.5 338.835938 37.5 Z M 35.804688 49.625 L 338.835938 49.625 C 342.175781 49.625 344.898438 52.347656 344.898438 55.6875 L 344.898438 310.3125 C 344.898438 313.652344 342.175781 316.375 338.835938 316.375 L 35.804688 316.375 C 32.46875 316.375 29.746094 313.652344 29.746094 310.3125 L 29.746094 110.25 L 278.230469 110.25 C 281.59375 110.25 284.289062 107.527344 284.289062 104.1875 C 284.289062 100.847656 281.59375 98.125 278.230469 98.125 L 29.746094 98.125 L 29.746094 55.6875 C 29.746094 52.347656 32.46875 49.625 35.804688 49.625 Z M 53.988281 61.75 C 50.625 61.75 47.925781 64.472656 47.925781 67.8125 L 47.925781 79.9375 C 47.925781 83.277344 50.625 86 53.988281 86 C 57.347656 86 60.046875 83.277344 60.046875 79.9375 L 60.046875 67.8125 C 60.046875 64.472656 57.347656 61.75 53.988281 61.75 Z M 84.289062 61.75 C 80.929688 61.75 78.230469 64.472656 78.230469 67.8125 L 78.230469 79.9375 C 78.230469 83.277344 80.929688 86 84.289062 86 C 87.652344 86 90.351562 83.277344 90.351562 79.9375 L 90.351562 67.8125 C 90.351562 64.472656 87.652344 61.75 84.289062 61.75 Z M 114.59375 61.75 C 111.230469 61.75 108.53125 64.472656 108.53125 67.8125 L 108.53125 79.9375 C 108.53125 83.277344 111.230469 86 114.59375 86 C 117.957031 86 120.652344 83.277344 120.652344 79.9375 L 120.652344 67.8125 C 120.652344 64.472656 117.957031 61.75 114.59375 61.75 Z M 144.898438 61.75 C 141.535156 61.75 138.835938 64.472656 138.835938 67.8125 L 138.835938 79.9375 C 138.835938 83.277344 141.535156 86 144.898438 86 C 148.257812 86 150.957031 83.277344 150.957031 79.9375 L 150.957031 67.8125 C 150.957031 64.472656 148.257812 61.75 144.898438 61.75 Z M 175.199219 61.75 C 171.839844 61.75 169.140625 64.472656 169.140625 67.8125 L 169.140625 79.9375 C 169.140625 83.277344 171.839844 86 175.199219 86 C 178.5625 86 181.261719 83.277344 181.261719 79.9375 L 181.261719 67.8125 C 181.261719 64.472656 178.5625 61.75 175.199219 61.75 Z M 205.503906 61.75 C 202.140625 61.75 199.441406 64.472656 199.441406 67.8125 L 199.441406 79.9375 C 199.441406 83.277344 202.140625 86 205.503906 86 C 208.863281 86 211.5625 83.277344 211.5625 79.9375 L 211.5625 67.8125 C 211.5625 64.472656 208.863281 61.75 205.503906 61.75 Z M 235.804688 61.75 C 232.445312 61.75 229.746094 64.472656 229.746094 67.8125 L 229.746094 79.9375 C 229.746094 83.277344 232.445312 86 235.804688 86 C 239.167969 86 241.867188 83.277344 241.867188 79.9375 L 241.867188 67.8125 C 241.867188 64.472656 239.167969 61.75 235.804688 61.75 Z M 266.109375 61.75 C 262.746094 61.75 260.046875 64.472656 260.046875 67.8125 L 260.046875 79.9375 C 260.046875 83.277344 262.746094 86 266.109375 86 C 269.472656 86 272.167969 83.277344 272.167969 79.9375 L 272.167969 67.8125 C 272.167969 64.472656 269.472656 61.75 266.109375 61.75 Z M 296.414062 61.75 C 293.050781 61.75 290.351562 64.472656 290.351562 67.8125 L 290.351562 79.9375 C 290.351562 83.277344 293.050781 86 296.414062 86 C 299.773438 86 302.472656 83.277344 302.472656 79.9375 L 302.472656 67.8125 C 302.472656 64.472656 299.773438 61.75 296.414062 61.75 Z M 326.714844 61.75 C 323.355469 61.75 320.65625 64.472656 320.65625 67.8125 L 320.65625 79.9375 C 320.65625 83.277344 323.355469 86 326.714844 86 C 330.078125 86 332.777344 83.277344 332.777344 79.9375 L 332.777344 67.8125 C 332.777344 64.472656 330.078125 61.75 326.714844 61.75 Z M 302.472656 98.125 C 299.109375 98.125 296.414062 100.847656 296.414062 104.1875 C 296.414062 107.527344 299.109375 110.25 302.472656 110.25 L 326.714844 110.25 C 330.078125 110.25 332.777344 107.527344 332.777344 104.1875 C 332.777344 100.847656 330.078125 98.125 326.714844 98.125 Z M 204.554688 134.570312 C 202.234375 134.925781 200.222656 136.65625 199.632812 139.09375 L 163.269531 284.59375 C 162.4375 287.839844 164.429688 291.128906 167.671875 291.933594 C 168.167969 292.078125 168.664062 292.125 169.140625 292.125 C 171.863281 292.125 174.324219 290.300781 175.011719 287.554688 L 211.375 142.054688 C 212.203125 138.785156 210.214844 135.496094 206.972656 134.6875 C 206.164062 134.476562 205.335938 134.429688 204.554688 134.570312 Z M 132.777344 170.875 C 131.238281 170.875 129.675781 171.46875 128.492188 172.652344 L 92.125 209.027344 C 89.757812 211.394531 89.757812 215.230469 92.125 217.597656 L 128.492188 253.972656 C 129.675781 255.15625 131.214844 255.75 132.777344 255.75 C 134.339844 255.75 135.875 255.15625 137.058594 253.972656 C 139.429688 251.605469 139.429688 247.769531 137.058594 245.402344 L 104.980469 213.3125 L 137.058594 181.222656 C 139.429688 178.855469 139.429688 175.019531 137.058594 172.652344 C 135.875 171.46875 134.3125 170.875 132.777344 170.875 Z M 241.867188 170.875 C 240.328125 170.875 238.765625 171.46875 237.582031 172.652344 C 235.214844 175.019531 235.214844 178.855469 237.582031 181.222656 L 269.660156 213.3125 L 237.582031 245.402344 C 235.214844 247.769531 235.214844 251.605469 237.582031 253.972656 C 238.765625 255.15625 240.304688 255.75 241.867188 255.75 C 243.429688 255.75 244.96875 255.15625 246.152344 253.972656 L 282.515625 217.597656 C 284.882812 215.230469 284.882812 211.394531 282.515625 209.027344 L 246.152344 172.652344 C 244.96875 171.46875 243.40625 170.875 241.867188 170.875 Z M 241.867188 170.875 " fill-opacity="1" fill-rule="nonzero"/></g></svg>