<svg xmlns="http://www.w3.org/2000/svg" xmlns:xlink="http://www.w3.org/1999/xlink" width="40" zoomAndPan="magnify" viewBox="0 0 30 30.000001" height="40" preserveAspectRatio="xMidYMid meet" version="1.0"><defs><clipPath id="5b6c17273b"><path d="M 0.484375 0 L 29.515625 0 L 29.515625 29.03125 L 0.484375 29.03125 Z M 0.484375 0 " clip-rule="nonzero"/></clipPath><clipPath id="8ba3f60f38"><path d="M 0.484375 0 L 29.515625 0 L 29.515625 27.582031 L 0.484375 27.582031 Z M 0.484375 0 " clip-rule="nonzero"/></clipPath><clipPath id="0080ab8a2d"><path d="M 4 15 L 26 15 L 26 27.582031 L 4 27.582031 Z M 4 15 " clip-rule="nonzero"/></clipPath></defs><g clip-path="url(#5b6c17273b)"><path fill="#ffffff" d="M 0.484375 0 L 29.515625 0 L 29.515625 36.289062 L 0.484375 36.289062 Z M 0.484375 0 " fill-opacity="1" fill-rule="nonzero"/><path fill="#ffffff" d="M 0.484375 0 L 29.515625 0 L 29.515625 29.03125 L 0.484375 29.03125 Z M 0.484375 0 " fill-opacity="1" fill-rule="nonzero"/><path fill="#b3b3b3" d="M 0.484375 0 L 29.515625 0 L 29.515625 29.03125 L 0.484375 29.03125 Z M 0.484375 0 " fill-opacity="1" fill-rule="nonzero"/></g><g clip-path="url(#8ba3f60f38)"><path fill="#b3b3b3" d="M 29.515625 13.066406 C 29.515625 16.777344 28.125 20.167969 25.828125 22.734375 C 23.171875 25.710938 19.304688 27.582031 15 27.582031 C 10.695312 27.582031 6.828125 25.710938 4.171875 22.734375 C 1.878906 20.167969 0.484375 16.777344 0.484375 13.066406 C 0.484375 5.046875 6.984375 -1.453125 15 -1.453125 C 23.019531 -1.453125 29.515625 5.046875 29.515625 13.066406 " fill-opacity="1" fill-rule="nonzero"/></g><path fill="#f2f2f2" d="M 15 15.738281 C 17.632812 15.738281 20.027344 12.761719 20.027344 9.492188 C 20.027344 6.40625 19.429688 3.351562 15 3.351562 C 10.570312 3.351562 9.972656 6.40625 9.972656 9.492188 C 9.972656 12.761719 12.371094 15.738281 15 15.738281 " fill-opacity="1" fill-rule="nonzero"/><g clip-path="url(#0080ab8a2d)"><path fill="#f2f2f2" d="M 25.828125 22.734375 C 23.171875 25.710938 19.304688 27.582031 15 27.582031 C 10.695312 27.582031 6.828125 25.710938 4.171875 22.734375 C 4.125 20.941406 5.320312 16.785156 11.410156 15.507812 C 12.453125 16.570312 13.734375 17.171875 15 17.171875 C 16.265625 17.171875 17.546875 16.570312 18.589844 15.507812 C 24.679688 16.785156 25.875 20.941406 25.828125 22.734375 " fill-opacity="1" fill-rule="nonzero"/></g></svg>