<?xml version="1.0" standalone="no"?>
<!DOCTYPE svg PUBLIC "-//W3C//DTD SVG 20010904//EN"
  "http://www.w3.org/TR/2001/REC-SVG-20010904/DTD/svg10.dtd">
<svg version="1.0" xmlns="http://www.w3.org/2000/svg"
     width="500.000000pt" height="500.000000pt" viewBox="0 0 500.000000 500.000000"
     preserveAspectRatio="xMidYMid meet">

  <g transform="translate(0.000000,500.000000) scale(0.100000,-0.100000)"
     fill="#000000" stroke="none">
    <path d="M0 4460 l0 -540 560 0 560 0 0 540 0 540 -277 -1 c-154 -1 -264 -4
-246 -9 18 -4 39 -13 47 -19 32 -27 23 -111 -14 -131 -10 -6 -41 -10 -69 -10
-67 0 -91 23 -91 84 0 49 13 64 63 76 17 5 -94 8 -250 9 l-283 1 0 -540z m660
23 c0 -278 -2 -312 -19 -348 -34 -73 -90 -105 -185 -105 -94 0 -96 2 -96 86
l0 74 39 -6 c69 -11 71 -3 71 323 l0 283 95 0 95 0 0 -307z"/>
    <path d="M0 3190 l0 -560 560 0 560 0 0 560 0 560 -560 0 -560 0 0 -560z m752
237 c31 -18 57 -44 75 -75 l28 -47 3 -252 3 -253 -84 0 -84 0 -18 40 -18 41
-31 -30 c-46 -45 -101 -64 -181 -64 -100 0 -155 33 -190 115 -19 46 -20 138
-1 182 32 76 127 119 290 131 44 3 81 7 83 9 2 2 -1 15 -7 30 -19 50 -87 56
-195 15 -27 -11 -51 -19 -53 -19 -4 0 -73 153 -70 155 7 6 125 45 148 49 14 2
77 4 140 3 106 -2 119 -4 162 -30z"/>
    <path d="M506 3059 c-19 -15 -26 -30 -26 -54 0 -42 27 -60 75 -51 43 8 65 35
72 85 l6 41 -50 0 c-36 0 -58 -6 -77 -21z"/>
    <path d="M2790 3686 c0 -11 309 -541 316 -543 7 -2 299 501 312 538 2 5 -39 9
-95 9 l-98 0 -50 -92 c-27 -50 -55 -97 -60 -105 -8 -11 -24 10 -70 91 l-60
106 -97 0 c-54 0 -98 -2 -98 -4z"/>
    <path d="M1420 3575 c-47 -7 -91 -14 -97 -14 -7 -1 -13 -7 -13 -15 0 -14 252
-492 268 -508 4 -4 59 6 121 22 62 16 117 28 121 25 5 -3 20 -26 36 -53 15
-26 42 -71 60 -99 l33 -53 183 64 c108 37 184 69 186 77 1 8 -23 49 -54 93
-63 87 -63 86 22 106 30 8 57 17 60 22 6 9 -61 102 -113 159 l-24 26 -75 -17
c-42 -10 -80 -22 -86 -28 -6 -6 7 -33 41 -80 28 -38 51 -74 51 -79 0 -4 -64
-26 -142 -47 -79 -22 -147 -41 -153 -43 -5 -2 -73 100 -149 227 -157 260 -128
237 -276 215z m254 -240 l127 -210 -73 -22 c-40 -13 -87 -26 -103 -29 l-31 -5
-121 228 c-67 125 -119 230 -117 233 8 7 179 27 185 21 4 -3 63 -100 133 -216z
m576 -7 c27 -35 50 -65 50 -69 0 -5 -90 -29 -110 -29 -10 0 -105 129 -99 134
3 2 78 21 101 25 4 0 30 -27 58 -61z m-16 -230 c34 -48 44 -69 34 -73 -7 -3
-71 -25 -143 -49 -71 -24 -137 -47 -146 -51 -13 -5 -28 13 -68 78 -28 47 -51
89 -51 93 0 5 69 27 153 50 111 30 155 38 163 30 6 -6 32 -41 58 -78z"/>
    <path d="M0 1900 l0 -560 560 0 560 0 0 560 0 560 -560 0 -560 0 0 -560z m812
373 l47 -22 -31 -78 c-17 -43 -34 -81 -37 -85 -4 -4 -30 1 -59 12 -121 46
-186 8 -199 -115 -11 -103 37 -175 115 -175 36 0 130 27 160 46 l22 14 0 -95
0 -95 -39 -19 c-59 -31 -159 -43 -238 -31 -171 28 -255 135 -255 329 0 97 15
153 54 211 35 53 85 91 148 114 67 24 248 18 312 -11z"/>
    <path d="M1378 2385 c-6 -6 -8 17 38 -505 19 -223 38 -408 42 -412 4 -3 89
-30 190 -59 l182 -53 190 54 189 54 6 41 c6 49 75 840 75 866 0 18 -15 19
-453 19 -250 0 -456 -2 -459 -5z m785 -467 c-19 -210 -35 -383 -37 -385 -2 -2
-66 -21 -142 -42 l-139 -38 -3 56 -3 57 -102 33 c-56 19 -108 38 -114 43 -8 7
-13 37 -13 84 l0 74 55 0 55 0 0 -35 c0 -31 4 -37 37 -50 85 -36 83 -37 83 49
l0 76 -64 0 -64 0 -4 56 c-1 31 -1 58 1 60 2 2 33 4 68 4 l63 0 0 50 0 50
-124 0 -123 0 -7 38 c-12 77 -20 72 124 72 l130 0 0 65 0 65 178 0 178 0 -33
-382z"/>
    <path d="M2680 2342 c0 -22 16 -214 35 -428 19 -214 35 -396 35 -404 0 -12 41
-28 173 -63 94 -26 181 -47 191 -47 18 0 347 88 354 95 2 2 82 861 82 883 0 1
-196 2 -435 2 l-435 0 0 -38z m710 -169 c0 -21 -3 -48 -6 -60 -6 -23 -7 -23
-215 -23 l-209 0 0 -24 c0 -13 3 -38 6 -55 l7 -31 198 0 199 0 0 -27 c-1 -51
-27 -303 -32 -309 -3 -2 -54 -19 -114 -36 l-108 -30 -116 32 -117 33 -7 60
c-3 33 -6 73 -6 89 0 29 0 29 58 26 l57 -3 3 -41 3 -42 60 -15 c52 -13 66 -13
118 0 56 14 59 16 65 51 3 21 6 52 6 70 l0 32 -190 0 c-174 0 -190 1 -190 18
-1 9 -7 82 -14 162 -8 80 -12 148 -9 153 2 4 128 7 279 7 l274 0 0 -37z"/>
    <path d="M0 610 l0 -560 560 0 560 0 0 560 0 560 -560 0 -560 0 0 -560z m488
282 l-4 -248 46 61 c25 33 70 91 100 128 l54 67 129 0 c126 0 129 0 116 -19
-8 -11 -58 -74 -112 -140 l-98 -120 120 -185 120 -186 -134 0 -133 0 -63 103
c-34 56 -66 106 -70 111 -4 5 -21 -1 -38 -13 -31 -22 -31 -23 -31 -112 l0 -89
-120 0 -120 0 0 445 0 445 121 0 122 0 -5 -248z"/>
    <path d="M4238 890 c-269 -67 -370 -247 -216 -386 87 -78 242 -124 422 -124
131 0 231 20 321 65 82 41 105 59 139 110 49 72 29 172 -47 236 -41 35 -162
89 -232 104 -100 21 -291 18 -387 -5z m396 -40 c85 -21 182 -69 216 -105 50
-53 55 -127 12 -185 -26 -35 -115 -87 -192 -112 -91 -29 -300 -37 -402 -14
-167 37 -278 121 -278 210 0 88 93 164 253 206 102 27 287 27 391 0z"/>
    <path d="M4386 804 c-8 -29 -46 -214 -46 -220 0 -2 11 -4 25 -4 26 0 27 2 43
85 7 37 10 40 42 40 l35 0 -3 -63 c-3 -61 -2 -63 20 -60 19 2 25 13 37 67 15
63 15 64 -8 82 -14 12 -39 19 -63 19 l-40 0 7 40 c6 38 5 40 -18 40 -18 0 -27
-7 -31 -26z"/>
    <path d="M4135 648 c-10 -57 -20 -109 -23 -116 -3 -10 3 -13 24 -10 23 2 30 9
32 31 3 22 8 27 30 27 82 0 132 38 134 101 2 50 -29 69 -112 69 l-67 0 -18
-102z m129 56 c17 -7 21 -41 7 -63 -5 -7 -26 -14 -47 -15 -41 -1 -42 0 -29 62
5 22 34 29 69 16z"/>
    <path d="M4585 738 c-7 -21 -35 -183 -35 -201 0 -11 8 -17 24 -17 19 0 25 6
28 28 3 25 8 28 60 36 64 9 94 34 104 83 5 26 1 37 -19 57 -23 23 -35 26 -92
26 -44 0 -67 -4 -70 -12z m124 -42 c14 -17 -1 -61 -24 -70 -29 -11 -65 -7 -65
8 0 7 3 28 6 45 6 27 11 31 39 31 18 0 38 -6 44 -14z"/>
    <path d="M3225 889 c-4 -6 8 -40 26 -77 27 -54 33 -77 31 -117 -2 -31 2 -57
11 -69 15 -20 37 -14 37 10 0 10 9 5 25 -13 l25 -28 -23 42 c-12 24 -25 43
-28 43 -4 0 -10 -12 -14 -27 -6 -25 -7 -26 -17 -9 -6 10 -8 37 -5 59 5 34 -1
54 -28 109 -33 69 -31 82 13 59 9 -6 29 -12 43 -15 52 -11 105 -61 145 -140
27 -52 47 -79 64 -85 14 -5 34 -16 44 -23 18 -14 17 -15 -14 -22 -32 -6 -33
-7 -15 -26 10 -11 34 -29 54 -40 l36 -20 -39 34 -38 35 26 7 c37 9 33 21 -22
55 -39 24 -55 43 -78 91 -31 66 -100 135 -143 144 -14 3 -38 12 -53 20 -31 17
-54 18 -63 3z"/>
    <path d="M3305 820 c3 -5 8 -10 11 -10 2 0 4 5 4 10 0 6 -5 10 -11 10 -5 0 -7
-4 -4 -10z"/>
    <path d="M1800 494 c0 -102 -4 -183 -10 -195 -15 -26 -67 -25 -97 3 -23 21
-23 21 -59 2 -19 -10 -38 -23 -41 -27 -8 -13 57 -77 94 -93 73 -32 161 -7 198
56 18 31 20 56 24 233 l3 197 -56 0 -56 0 0 -176z"/>
    <path d="M2043 650 c-64 -39 -83 -128 -40 -191 15 -23 49 -47 102 -74 70 -35
80 -44 83 -70 8 -63 -71 -76 -123 -21 l-32 35 -37 -25 c-20 -14 -36 -28 -36
-33 0 -20 47 -65 84 -82 49 -22 124 -24 169 -5 54 23 80 59 85 118 6 76 -21
112 -123 163 -43 22 -83 48 -89 57 -27 45 47 77 88 39 l22 -21 38 26 c35 24
36 27 23 47 -35 55 -152 75 -214 37z"/>
    <path d="M2636 468 c-3 -24 -7 -74 -8 -113 -3 -59 0 -70 15 -73 15 -3 17 5 17
61 0 106 10 111 40 21 15 -45 33 -80 41 -82 10 -2 24 24 44 85 l30 88 5 -82
c5 -87 10 -99 35 -90 16 7 16 7 -1 175 -5 46 -8 52 -29 52 -20 0 -27 -10 -50
-80 -15 -44 -28 -80 -30 -80 -2 0 -15 36 -30 80 -23 70 -30 80 -50 80 -20 0
-25 -6 -29 -42z"/>
    <path d="M2890 443 c0 -5 12 -43 25 -87 27 -83 23 -106 -16 -106 -11 0 -19 -4
-19 -10 0 -5 13 -10 29 -10 40 0 75 45 101 127 24 80 25 95 3 91 -11 -2 -21
-23 -32 -68 l-15 -65 -20 67 c-16 50 -26 68 -38 68 -10 0 -18 -3 -18 -7z"/>
  </g>
</svg>
