<svg xmlns="http://www.w3.org/2000/svg"  viewBox="0 0 80 80" width="160px" height="160px"><path fill="#dcd5f2" d="M40,61.5C18.22,61.5,0.5,51.855,0.5,40S18.22,18.5,40,18.5S79.5,28.145,79.5,40S61.78,61.5,40,61.5z"/><path fill="#8b75a1" d="M40,19c21.505,0,39,9.421,39,21S61.505,61,40,61S1,51.579,1,40S18.495,19,40,19 M40,18 C17.909,18,0,27.85,0,40s17.909,22,40,22s40-9.85,40-22S62.091,18,40,18L40,18z"/><path fill="#36404d" d="M25.112 34c1.725 0 3.214.622 4.084 1.706.749.934.981 2.171.668 3.577C29.023 43.074 27.395 44 21.57 44h-4.14l1.75-10H25.112M25.112 32H17.5L14 52h2l1.056-6h4.515c5.863 0 9.053-.905 10.246-6.284C32.842 35.096 29.436 32 25.112 32L25.112 32zM61.112 34c1.725 0 3.214.622 4.084 1.706.749.934.981 2.171.668 3.577C65.023 43.074 63.395 44 57.57 44h-4.14l1.75-10H61.112M61.112 32H53.5L50 52h2l1.056-6h4.515c5.863 0 9.053-.905 10.246-6.284C68.842 35.096 65.436 32 61.112 32L61.112 32z"/><g><path fill="#36404d" d="M49.072,33.212C48.193,32.348,46.644,32,44.334,32h-5.538L40,26h-2.1L34,46h1.99l2.388-12h0.419 h5.538c2.338,0,3.094,0.4,3.335,0.637c0.343,0.338,0.424,1.226,0.217,2.363l-1.767,9h2.106l1.626-8.63 C50.199,35.462,49.936,34.062,49.072,33.212z"/></g></svg>