<?xml version="1.0" encoding="utf-8"?>
<!-- Generator: Adobe Illustrator 23.0.5, SVG Export Plug-In . SVG Version: 6.00 Build 0)  -->
<svg version="1.1" id="Layer_1" xmlns="http://www.w3.org/2000/svg" xmlns:xlink="http://www.w3.org/1999/xlink" x="0px" y="0px"
	 viewBox="0 0 56.69 22.68" style="enable-background:new 0 0 56.69 22.68;" xml:space="preserve">
<style type="text/css">
	.st0{fill:#356388;}
	.st1{fill:#39B54A;}
	.st2{fill:#3C9CD7;}
</style>
<g>
	<rect x="32.09" y="6.47" class="st0" width="1.97" height="1.77"/>
	<rect x="40.93" y="6.47" class="st1" width="1.93" height="1.88"/>
	<rect x="35.05" y="14.09" class="st1" width="1.93" height="1.88"/>
	<rect x="32.09" y="8.8" class="st1" width="1.97" height="1.88"/>
	<path class="st0" d="M32.09,11.24v2.22c0,0.52-0.28,0.84-0.75,0.84c-0.44,0-0.76-0.28-0.76-0.85V6.47H30.3
		c-1.18,0-1.81,0.76-1.81,2.24v4.8c0,1.8,1.03,2.61,2.73,2.61c1.6,0,2.85-0.92,2.84-2.65v-2.22H32.09z"/>
	<path class="st2" d="M25.25,6.47H24c-1.18,0-1.81,0.76-1.81,2.24v7.27h2.08V12.6h0.92c1.72,0,2.45-1.2,2.45-3.19
		C27.64,7.47,26.81,6.47,25.25,6.47z M24.87,10.91h-0.6V8.18h0.61c0.49,0,0.73,0.37,0.73,1.29C25.61,10.45,25.35,10.91,24.87,10.91z
		"/>
	<path class="st2" d="M12.43,6.47h-1.25c-1.18,0-1.81,0.76-1.81,2.24v7.27h2.08V12.6h0.92c1.72,0,2.45-1.2,2.45-3.19
		C14.82,7.47,13.99,6.47,12.43,6.47z M12.04,10.91h-0.6V8.18h0.61c0.49,0,0.73,0.37,0.73,1.29C12.79,10.45,12.52,10.91,12.04,10.91z
		"/>
	<path class="st2" d="M20.89,6.47c-1.18,0-1.81,0.76-1.81,2.24v1.36v0.19H17.6v-0.19v-3.6h-0.27c-1.18,0-1.81,0.76-1.81,2.24v7.27
		h2.08v-3.65v-0.19v0h1.48v0v0.19v3.65h2.07v-9.5H20.89z"/>
	<path class="st0" d="M47.18,10.36V8.87h-0.97V7.26H45.6c-0.85,0-1.31,0.55-1.31,1.61h-0.63v1.49h0.63v4.2
		c0,1.05,0.75,1.52,1.69,1.52c0.37,0,0.84-0.07,1.19-0.19v-1.53c-0.15,0.03-0.36,0.04-0.56,0.04c-0.31,0-0.4-0.15-0.4-0.41v-3.63
		H47.18z"/>
	<path class="st0" d="M38.46,8.64c-0.63,0-1.13,0.27-1.48,0.77V8.8h-0.63c-0.85,0-1.31,0.55-1.31,1.61v3.12h1.93V11
		c0-0.43,0.21-0.75,0.53-0.75c0.43,0,0.52,0.33,0.52,0.63v5.09h1.92v-5.81C39.96,9.22,39.29,8.64,38.46,8.64z"/>
	<path class="st0" d="M42.24,8.87c-0.85,0-1.31,0.55-1.31,1.61v5.49h1.93v-7.1H42.24z"/>
</g>
<g>
</g>
<g>
</g>
<g>
</g>
<g>
</g>
<g>
</g>
<g>
</g>
</svg>
